# xmcd CD database file
#
# Track frame offsets:
#	150
#	19960
#	42407
#
# Disc length: 825 seconds
#
# Revision: 1
# Processed by: cddbd v1.5.1PL0 Copyright (c) Steve Scherf et al.
# Submitted via: CDex 1.51
#
DISCID=20033703
DTITLE=19 - すべてへ
DYEAR=1997
DGENRE=JPop
TTITLE0=すべてへ
TTITLE1=嘘がぼくらをみつけたんだ
TTITLE2=すべてへ（Ｍｕｓｉｃ　Track）
EXTD=YEAR: 1997
EXTT0=
EXTT1=
EXTT2=
PLAYORDER=
